<svg xmlns="http://www.w3.org/2000/svg" viewBox="0 0 800 520" width="800" height="520" role="img" aria-label="Website template preview placeholder">
  <defs>
    <linearGradient id="tbg" x1="0" y1="0" x2="1" y2="1">
      <stop offset="0" stop-color="#eef2ff"/>
      <stop offset="1" stop-color="#e0e7ff"/>
    </linearGradient>
  </defs>
  <rect width="800" height="520" fill="url(#tbg)"/>
  <rect x="40" y="40" width="720" height="440" rx="14" fill="#ffffff" stroke="#dfe3ee"/>
  <!-- nav bar -->
  <rect x="40" y="40" width="720" height="54" rx="14" fill="#2f3b5a"/>
  <rect x="68" y="60" width="120" height="14" rx="7" fill="#9fb0cd"/>
  <rect x="560" y="62" width="40" height="10" rx="5" fill="#7d8db0"/>
  <rect x="612" y="62" width="40" height="10" rx="5" fill="#7d8db0"/>
  <rect x="664" y="62" width="64" height="10" rx="5" fill="#3b5bdb"/>
  <!-- hero -->
  <rect x="68" y="124" width="320" height="26" rx="8" fill="#c7d0ee"/>
  <rect x="68" y="166" width="260" height="14" rx="7" fill="#e6e9f5"/>
  <rect x="68" y="190" width="230" height="14" rx="7" fill="#e6e9f5"/>
  <rect x="68" y="226" width="150" height="40" rx="10" fill="#3b5bdb"/>
  <rect x="440" y="124" width="290" height="150" rx="12" fill="#eef1fb"/>
  <!-- cards -->
  <rect x="68" y="320" width="200" height="120" rx="12" fill="#f3f5fb" stroke="#e3e7f3"/>
  <rect x="300" y="320" width="200" height="120" rx="12" fill="#f3f5fb" stroke="#e3e7f3"/>
  <rect x="532" y="320" width="200" height="120" rx="12" fill="#f3f5fb" stroke="#e3e7f3"/>
  <text x="400" y="500" text-anchor="middle" font-family="Inter, Arial, sans-serif" font-size="16" fill="#9aa3c0">Template preview goes here</text>
</svg>
