<svg xmlns="http://www.w3.org/2000/svg" viewBox="0 0 39 39" shape-rendering="crispEdges"><path fill="#ffffff" d="M0 0h39v39H0z"/><path stroke="#0f172a" d="M1 1.5h7m2 0h1m1 0h3m3 0h1m3 0h3m4 0h1m1 0h7M1 2.5h1m5 0h1m2 0h1m1 0h2m2 0h2m1 0h1m1 0h2m2 0h2m1 0h2m1 0h1m5 0h1M1 3.5h1m1 0h3m1 0h1m1 0h1m1 0h1m1 0h1m2 0h2m4 0h3m2 0h1m1 0h1m1 0h1m1 0h3m1 0h1M1 4.5h1m1 0h3m1 0h1m1 0h1m1 0h1m3 0h1m2 0h1m4 0h5m3 0h1m1 0h3m1 0h1M1 5.5h1m1 0h3m1 0h1m1 0h5m3 0h8m4 0h1m1 0h1m1 0h3m1 0h1M1 6.5h1m5 0h1m1 0h2m7 0h1m2 0h3m4 0h1m2 0h1m5 0h1M1 7.5h7m1 0h1m1 0h1m1 0h1m1 0h1m1 0h1m1 0h1m1 0h1m1 0h1m1 0h1m1 0h1m1 0h1m1 0h7M9 8.5h2m2 0h2m3 0h5m2 0h1m1 0h1m1 0h1M1 9.5h1m1 0h5m2 0h2m2 0h4m2 0h1m2 0h5m3 0h5M4 10.5h2m5 0h1m4 0h1m2 0h1m1 0h4m1 0h1m2 0h1m5 0h2M2 11.5h1m1 0h1m2 0h1m2 0h1m1 0h6m2 0h1m5 0h3m1 0h2m3 0h3M4 12.5h1m3 0h3m1 0h1m1 0h1m1 0h1m2 0h4m4 0h4m1 0h1m4 0h1M1 13.5h2m3 0h4m2 0h1m2 0h6m2 0h1m1 0h3m2 0h2m1 0h5M1 14.5h1m2 0h3m2 0h3m1 0h1m1 0h1m1 0h1m1 0h4m1 0h1m7 0h1M3 15.5h1m1 0h3m2 0h1m1 0h1m1 0h1m1 0h2m1 0h1m7 0h2m1 0h1m1 0h3m2 0h1M2 16.5h1m1 0h1m1 0h1m3 0h3m1 0h3m3 0h1m1 0h1m2 0h1m4 0h1m1 0h2m2 0h1M6 17.5h4m2 0h2m2 0h1m2 0h1m3 0h1m1 0h2m1 0h1m1 0h4m1 0h1m1 0h1M6 18.5h1m5 0h1m2 0h4m3 0h1m1 0h1m1 0h1m2 0h1m2 0h1m2 0h2M3 19.5h1m1 0h5m8 0h1m2 0h1m5 0h2m3 0h3m1 0h2M1 20.5h1m2 0h1m4 0h3m1 0h2m2 0h1m2 0h1m1 0h4m1 0h1m1 0h3m5 0h1M4 21.5h1m1 0h3m1 0h2m1 0h3m2 0h1m1 0h2m2 0h3m3 0h2m1 0h3M3 22.5h4m3 0h2m2 0h1m2 0h2m1 0h3m1 0h1m1 0h1m2 0h2m3 0h1m1 0h1M2 23.5h2m1 0h1m1 0h1m8 0h3m3 0h1m3 0h9m1 0h2M2 24.5h2m4 0h4m3 0h5m1 0h3m3 0h3m1 0h3m2 0h2M1 25.5h1m3 0h1m1 0h1m1 0h1m1 0h2m2 0h3m7 0h4m1 0h4m1 0h3M1 26.5h2m2 0h1m2 0h2m1 0h2m1 0h1m1 0h1m2 0h3m2 0h1m1 0h2m1 0h1m2 0h1m1 0h1M1 27.5h1m3 0h1m1 0h1m1 0h1m2 0h1m2 0h5m3 0h1m2 0h7m3 0h2M1 28.5h1m1 0h1m1 0h1m4 0h2m1 0h1m2 0h1m2 0h1m2 0h4m1 0h1m1 0h1m1 0h2M1 29.5h1m2 0h1m2 0h2m3 0h1m1 0h3m1 0h1m3 0h2m1 0h9m1 0h1M9 30.5h1m1 0h2m1 0h2m1 0h1m1 0h3m2 0h1m2 0h1m1 0h1m3 0h2M1 31.5h7m3 0h1m1 0h4m2 0h1m3 0h1m1 0h1m1 0h1m1 0h1m1 0h1m1 0h1m1 0h3M1 32.5h1m5 0h1m1 0h1m3 0h1m1 0h3m2 0h3m2 0h1m3 0h1m3 0h2m1 0h1M1 33.5h1m1 0h3m1 0h1m1 0h1m1 0h2m1 0h2m3 0h3m1 0h2m1 0h8m1 0h1m1 0h1M1 34.5h1m1 0h3m1 0h1m1 0h1m1 0h1m1 0h2m1 0h2m2 0h3m1 0h1m3 0h1m1 0h2m1 0h1m3 0h1M1 35.5h1m1 0h3m1 0h1m1 0h2m1 0h2m1 0h1m5 0h2m4 0h3m4 0h1m1 0h2M1 36.5h1m5 0h1m2 0h2m1 0h2m2 0h1m4 0h2m1 0h1m3 0h2m2 0h1m3 0h1M1 37.5h7m1 0h4m1 0h1m3 0h1m4 0h1m1 0h3m2 0h1m2 0h5"/></svg>
